<svg width="452" height="107" viewBox="0 0 452 107" fill="none" xmlns="http://www.w3.org/2000/svg">
<g clip-path="url(#clip0)">
<path d="M443.126 7.12023L347.609 37.8043C347.423 37.8643 347.425 38.1291 347.612 38.1861L397.894 53.4677C397.96 53.4878 398.011 53.5406 398.029 53.6074L411.327 103.352C411.378 103.544 411.648 103.552 411.71 103.363L443.377 7.3733C443.428 7.21801 443.281 7.07021 443.126 7.12023Z" stroke="white" stroke-width="4"/>
<path d="M3.784 83L12.76 37.944H17.688L15.664 47.36H16.016C16.72 46.128 17.4827 44.9547 18.304 43.84C19.184 42.6667 20.1813 41.64 21.296 40.76C22.4107 39.88 23.7013 39.2053 25.168 38.736C26.6347 38.208 28.336 37.944 30.272 37.944H33.088L32.12 42.784H29.216C27.104 42.784 25.168 43.1653 23.408 43.928C21.7067 44.632 20.2107 45.6 18.92 46.832C17.6293 48.064 16.544 49.5307 15.664 51.232C14.8427 52.8747 14.256 54.6053 13.904 56.424L8.624 83H3.784Z" fill="#F7941D"/>
<path d="M56.6294 84.056C53.696 84.056 50.968 83.5573 48.4454 82.56C45.9814 81.5627 43.84 80.096 42.0214 78.16C40.2614 76.224 38.8827 73.848 37.8854 71.032C36.888 68.1573 36.3894 64.872 36.3894 61.176C36.3894 56.248 37.0054 51.3493 38.2374 46.48C39.528 41.6107 41.4054 37.2693 43.8694 33.456C46.392 29.584 49.472 26.4747 53.1094 24.128C56.8054 21.7227 61.0294 20.52 65.7814 20.52C75.5787 20.52 81.768 24.9787 84.3494 33.896L79.6854 35.832C78.688 32.4293 77.0747 29.7893 74.8454 27.912C72.616 26.0347 69.4187 25.096 65.2534 25.096C62.6134 25.096 60.12 25.624 57.7734 26.68C55.4854 27.6773 53.4027 29.144 51.5254 31.08C49.7067 32.9573 48.1227 35.2453 46.7734 37.944C45.424 40.6427 44.4267 43.6347 43.7814 46.92L42.1974 54.928C41.904 56.336 41.6987 57.656 41.5814 58.888C41.5227 60.12 41.4934 61.2347 41.4934 62.232C41.4934 67.4533 42.8134 71.648 45.4534 74.816C48.152 77.9253 51.9654 79.48 56.8934 79.48C61.1174 79.48 64.5494 78.4533 67.1894 76.4C69.888 74.3467 72.2934 71.4133 74.4054 67.6L78.7174 69.712C76.0187 74.7573 72.9094 78.424 69.3894 80.712C65.928 82.9413 61.6747 84.056 56.6294 84.056ZM104.117 84.056C99.3651 84.056 95.5517 82.5013 92.6771 79.392C89.8611 76.2827 88.4531 71.9707 88.4531 66.456C88.4531 62.5253 88.9811 58.8 90.0371 55.28C91.0931 51.7013 92.5891 48.5627 94.5251 45.864C96.5197 43.1067 98.9251 40.936 101.741 39.352C104.616 37.7093 107.813 36.888 111.333 36.888C116.085 36.888 119.869 38.4427 122.685 41.552C125.56 44.6613 126.997 48.9733 126.997 54.488C126.997 58.4187 126.469 62.1733 125.413 65.752C124.357 69.272 122.832 72.4107 120.837 75.168C118.901 77.8667 116.496 80.0373 113.621 81.68C110.805 83.264 107.637 84.056 104.117 84.056ZM104.733 79.744C108.664 79.744 112.037 78.336 114.853 75.52C117.669 72.704 119.576 68.7147 120.573 63.552L121.629 58.184C121.805 57.3627 121.922 56.5707 121.981 55.808C122.04 54.9867 122.069 54.136 122.069 53.256C122.069 51.5547 121.834 49.9707 121.365 48.504C120.896 47.0373 120.192 45.776 119.253 44.72C118.314 43.6053 117.141 42.7547 115.733 42.168C114.325 41.5227 112.653 41.2 110.717 41.2C106.786 41.2 103.413 42.608 100.597 45.424C97.7811 48.24 95.8744 52.2293 94.8771 57.392L93.8211 62.76C93.6451 63.5813 93.5277 64.4027 93.4691 65.224C93.4104 65.9867 93.3811 66.808 93.3811 67.688C93.3811 71.1493 94.3197 74.024 96.1971 76.312C98.0744 78.6 100.92 79.744 104.733 79.744ZM135.44 83L144.416 37.944H149.344L147.496 47.008H147.848C149.432 43.7227 151.339 41.2293 153.568 39.528C155.856 37.768 158.702 36.888 162.104 36.888C165.448 36.888 168 37.856 169.76 39.792C171.579 41.6693 172.606 44.1627 172.84 47.272H173.28C174.806 43.928 176.771 41.376 179.176 39.616C181.64 37.7973 184.603 36.888 188.064 36.888C191.819 36.888 194.635 37.944 196.512 40.056C198.448 42.168 199.416 45.16 199.416 49.032C199.416 49.912 199.358 50.8507 199.24 51.848C199.182 52.8453 199.035 53.8427 198.8 54.84L194.048 78.688H200.912L200.032 83H193.52C192.171 83 191.115 82.7067 190.352 82.12C189.59 81.4747 189.208 80.536 189.208 79.304C189.208 78.8933 189.238 78.512 189.296 78.16C189.355 77.7493 189.443 77.3093 189.56 76.84L193.96 54.928C194.136 53.9893 194.254 53.0507 194.312 52.112C194.43 51.1733 194.488 50.3813 194.488 49.736C194.488 44.104 191.848 41.288 186.568 41.288C184.926 41.288 183.312 41.64 181.728 42.344C180.203 42.9893 178.766 44.0747 177.416 45.6C176.126 47.008 175.011 48.68 174.072 50.616C173.134 52.4933 172.459 54.488 172.048 56.6L166.68 83H161.84L167.472 54.928C167.648 53.9893 167.795 53.0507 167.912 52.112C168.03 51.1733 168.088 50.352 168.088 49.648C168.088 44.0747 165.566 41.288 160.52 41.288C157.059 41.288 154.038 42.7253 151.456 45.6C150.048 47.0667 148.816 48.7973 147.76 50.792C146.704 52.7867 145.942 54.8107 145.472 56.864L140.28 83H135.44ZM218.838 37.944H223.678L221.654 47.8H221.918C223.795 44.1627 225.907 41.4347 228.254 39.616C230.601 37.7973 233.534 36.888 237.054 36.888C239.225 36.888 241.161 37.2987 242.862 38.12C244.622 38.9413 246.089 40.0853 247.262 41.552C248.494 43.0187 249.433 44.808 250.078 46.92C250.723 49.032 251.046 51.3493 251.046 53.872C251.046 57.5093 250.577 61.1467 249.638 64.784C248.758 68.3627 247.379 71.5893 245.502 74.464C243.683 77.28 241.395 79.5973 238.638 81.416C235.881 83.176 232.683 84.056 229.046 84.056C225.878 84.056 223.15 83.3227 220.862 81.856C218.633 80.3307 217.137 78.16 216.374 75.344H216.11L211.094 100.6H206.254L218.838 37.944ZM228.606 79.656C232.83 79.656 236.291 78.2773 238.99 75.52C241.747 72.704 243.625 68.8027 244.622 63.816L245.678 58.536C245.795 57.7147 245.883 56.8933 245.942 56.072C246.059 55.2507 246.118 54.3413 246.118 53.344C246.118 51.6427 245.913 50.0587 245.502 48.592C245.15 47.1253 244.534 45.864 243.654 44.808C242.833 43.6933 241.777 42.8427 240.486 42.256C239.195 41.6107 237.67 41.288 235.91 41.288C234.033 41.288 232.331 41.64 230.806 42.344C229.281 43.048 227.814 44.0747 226.406 45.424C224.822 46.832 223.414 48.5333 222.182 50.528C221.009 52.5227 220.187 54.84 219.718 57.48L217.606 67.952C217.313 69.36 217.283 70.768 217.518 72.176C217.811 73.584 218.398 74.8453 219.278 75.96C220.158 77.0747 221.361 77.984 222.886 78.688C224.47 79.3333 226.377 79.656 228.606 79.656ZM265.162 83C263.637 83 262.493 82.648 261.73 81.944C261.026 81.1813 260.674 80.184 260.674 78.952C260.674 78.6587 260.674 78.424 260.674 78.248C260.674 78.0133 260.733 77.6613 260.85 77.192L272.73 17.88H277.57L265.426 78.688H272.554L271.674 83H265.162ZM316.822 37.944H322.014L289.982 95.32C288.926 97.256 287.87 98.6053 286.814 99.368C285.817 100.189 284.438 100.6 282.678 100.6H275.814L276.694 96.376H284.526L291.39 83.968L283.91 37.944H288.662L294.91 77.632H295.262L316.822 37.944Z" fill="white"/>
<path d="M401 58.5L411.125 94.8594C411.39 95.8089 412.723 95.8436 413.037 94.9091L438.5 19" stroke="#F7941D" stroke-width="4"/>
</g>
<defs>
<clipPath id="clip0">
<rect width="452" height="107" fill="white"/>
</clipPath>
</defs>
</svg>
